HIERARCHY
ROOT Hips
{
  OFFSET -125.086 92.215 135.881
  CHANNELS 6 Xposition Yposition Zposition Zrotation Xrotation Yrotation
  JOINT LeftUpLeg
  {
    OFFSET 8.64259 1.95398 -2.38835
    CHANNELS 3 Zrotation Xrotation Yrotation
    JOINT LeftLeg
    {
      OFFSET 43.7702 0 0
      CHANNELS 3 Zrotation Xrotation Yrotation
      JOINT LeftFoot
      {
        OFFSET 40.6238 0 0
        CHANNELS 3 Zrotation Xrotation Yrotation
        JOINT LeftToeBase
        {
          OFFSET 12.7242 0 0
          CHANNELS 3 Zrotation Xrotation Yrotation
          End Site
          {
            OFFSET 0 0 0
          }
        }
      }
    }
  }
  JOINT RightUpLeg
  {
    OFFSET -8.2249 1.95398 -2.59336
    CHANNELS 3 Zrotation Xrotation Yrotation
    JOINT RightLeg
    {
      OFFSET 43.5653 0 0
      CHANNELS 3 Zrotation Xrotation Yrotation
      JOINT RightFoot
      {
        OFFSET 40.6238 0 0
        CHANNELS 3 Zrotation Xrotation Yrotation
        JOINT RightToeBase
        {
          OFFSET 12.7242 0 0
          CHANNELS 3 Zrotation Xrotation Yrotation
          End Site
          {
            OFFSET 0 0 0
          }
        }
      }
    }
  }
  JOINT Spine
  {
    OFFSET 0.165834 0.87714 6.61349
    CHANNELS 3 Zrotation Xrotation Yrotation
    JOINT Spine1
    {
      OFFSET 7.38963 1.71661e-005 0
      CHANNELS 3 Zrotation Xrotation Yrotation
      JOINT Spine2
      {
        OFFSET 11.9445 1.14441e-005 0
        CHANNELS 3 Zrotation Xrotation Yrotation
        JOINT Spine3
        {
          OFFSET 14.7254 4.19617e-005 0
          CHANNELS 3 Zrotation Xrotation Yrotation
          JOINT Spine4
          {
            OFFSET 10.9679 0 0
            CHANNELS 3 Zrotation Xrotation Yrotation
            JOINT RightShoulder
            {
              OFFSET 2.46616 -1.6653 3.69651
              CHANNELS 3 Zrotation Xrotation Yrotation
              JOINT RightArm
              {
                OFFSET 13.0012 0 0
                CHANNELS 3 Zrotation Xrotation Yrotation
                JOINT RightForeArm
                {
                  OFFSET 28.7848 1.52588e-005 0
                  CHANNELS 3 Zrotation Xrotation Yrotation
                  JOINT RightHand
                  {
                    OFFSET 26.5688 1.52588e-005 0
                    CHANNELS 3 Zrotation Xrotation Yrotation
                    End Site
                    {
                      OFFSET 0 0 0
                    }
                  }
                }
              }
            }
            JOINT LeftShoulder
            {
              OFFSET 2.38034 -1.29275 -3.7523
              CHANNELS 3 Zrotation Xrotation Yrotation
              JOINT LeftArm
              {
                OFFSET 16.3182 6.10352e-005 0
                CHANNELS 3 Zrotation Xrotation Yrotation
                JOINT LeftForeArm
                {
                  OFFSET 27.0901 0 0
                  CHANNELS 3 Zrotation Xrotation Yrotation
                  JOINT LeftHand
                  {
                    OFFSET 24.5451 1.52588e-005 0
                    CHANNELS 3 Zrotation Xrotation Yrotation
                    End Site
                    {
                      OFFSET 0 0 0
                    }
                  }
                }
              }
            }
            JOINT Neck
            {
              OFFSET 5.0226 -0.0266342 0
              CHANNELS 3 Zrotation Xrotation Yrotation
              JOINT Head
              {
                OFFSET 6.69363 2.86102e-005 0
                CHANNELS 3 Zrotation Xrotation Yrotation
                End Site
                {
                  OFFSET 0 0 0
                }
              }
            }
          }
        }
      }
    }
  }
}
MOTION
Frames:	12
Frame Time:	0.0416667
-69.2997 94.9547 39.6976 97.3449 -0.158901 92.2178 -178.356 17.0803 88.6443 -6.91764 5.68717 1.69303 56.5578 1.49397 4.22261 52.989 -1.25335 8.35454 175.944 -0.828487 92.1529 -30.5971 -6.19377 -0.517366 71.522 -2.57188 15.1267 35.6881 -1.06223 -0.402605 0.25442 7.96461 -90.4566 10.945 0.295248 -0.936314 -0.726246 0.253747 -0.948402 -23.2596 0.562993 -0.804306 -3.2469 0.563001 -0.804299 109.02 -48.4662 -71.2779 29.0578 -8.3039 -18.5761 -10.8463 -26.3995 -36.5574 -14.8487 -0.714993 0.414033 -72.4155 -48.1965 105.296 -41.7985 -17.6264 -5.14711 17.0777 72.4029 -11.839 -14.3135 0.407696 -9.13107 -7.74552 3.08547 -6.00037 -32.3457 -0.506874 15.6381 
-60.8791 94.0897 39.4996 96.9747 -2.96151 92.917 -177.227 16.5592 89.7539 -6.48946 3.12696 1.32717 54.3094 0.19116 4.21189 49.173 -1.00925 11.1273 175.856 -3.79818 91.7148 -33.5688 -7.86688 -1.42265 70.0379 -2.03314 17.3147 45.8473 -2.61258 0.534783 0.520312 7.80514 -90.3117 11.2665 0.890399 -0.709375 -0.404354 0.858316 -0.747883 -22.9414 1.06241 -0.408969 -2.92872 1.06242 -0.408964 108.879 -48.9198 -71.5618 29.9271 -8.99561 -18.6221 -11.443 -27.0845 -36.9716 -13.6159 -0.594526 -0.134374 -71.3237 -49.1878 106.869 -39.4713 -18.0047 -3.86314 18.7398 68.1866 -14.6458 -14.8008 0.358345 -8.48838 -8.38579 3.47492 -5.75467 -32.5057 -0.328514 16.171 
-51.806 93.5718 39.1076 97.5632 -2.75423 92.0467 -176.723 16.11 88.6939 -15.3824 7.53849 0.994353 49.5838 -3.07703 9.12599 39.8888 -0.872093 1.27244 173.483 -6.13075 88.0131 -37.4455 -8.29132 -1.61965 57.4432 1.77083 24.6353 59.3717 -3.0313 10.3507 0.538627 7.61086 -89.9395 11.6547 1.09983 0.00396808 -0.0157407 1.09892 -0.0444512 -22.5546 1.04778 0.334366 -2.54194 1.04777 0.33436 109.284 -49.6745 -71.0318 32.0733 -7.51672 -14.9128 -12.6549 -32.2007 -34.3921 -11.1069 -0.44805 -0.500142 -70.8242 -49.1767 107.635 -37.9136 -17.2507 -5.4528 18.6425 62.0804 -15.8822 -12.2121 0.191025 -7.60846 -9.20103 3.49493 -6.40717 -33.91 -0.740861 16.9296 
-44.1586 93.0118 38.3889 99.4714 -1.60195 90.8276 -176.267 15.9014 86.187 -29.1675 9.06336 0.771929 58.33 1.03636 13.8493 33.9633 -0.16404 -4.18913 171.72 0.660158 83.5257 -54.982 -14.9758 -2.32245 42.1197 5.92274 24.5499 41.764 -1.45513 3.44775 0.487769 7.67387 -89.6383 11.523 1.13967 0.605161 -0.147576 1.16522 0.554404 -22.6844 0.905123 0.919709 -2.67177 0.90513 0.919707 108.83 -49.3895 -71.7019 34.659 -4.04836 -11.834 -10.9688 -38.3627 -27.2281 -7.9152 -0.344509 -0.113699 -70.9968 -49.1031 107.38 -37.7736 -13.8275 -11.7812 17.8602 59.0854 -16.8775 -9.74324 0.0364907 -6.31831 -9.81087 3.96527 -5.8556 -33.9049 -0.489099 17.5136 
-36.942 93.3386 37.8933 102.011 1.87002 90.7877 -176.206 10.3293 85.8881 -33.5086 10.5246 2.03941 63.9397 4.63426 13.725 34.9245 -0.245481 -4.51386 171.551 9.29058 83.8543 -70.3005 -14.9642 -2.48994 42.5833 5.55977 19.8295 42.5328 -2.25852 -4.79635 0.181674 7.94711 -89.6414 10.9777 0.527731 0.663142 -0.693296 0.556368 0.639275 -23.2275 0.304028 0.791086 -3.2148 0.304038 0.791082 108.626 -49.2173 -71.9993 36.2498 0.275837 -12.4605 -5.95014 -44.2746 -15.9622 -6.58128 -0.3009 0.156299 -71.981 -48.104 105.978 -38.9252 -9.17482 -20.4226 17.5985 55.5166 -18.2367 -8.38391 0.063864 -7.30946 -11.7582 5.1647 -4.61707 -32.5797 0.60908 18.2823 
-30.0177 94.089 37.5671 103.121 7.298 90.7471 -175.882 4.28825 86.7 -33.5218 15.4284 3.37373 66.6741 7.08999 13.8198 37.334 -0.575725 -3.77083 170.772 15.6695 84.7003 -68.6806 -12.8796 -1.42583 50.0768 2.90761 18.144 46.8666 -2.68135 2.05718 -0.2063 7.97141 -89.7286 10.9312 -0.285118 0.566981 -0.739781 -0.259865 0.57897 -23.2745 -0.442352 0.455079 -3.26191 -0.442341 0.455078 108.853 -49.32 -71.6574 36.256 3.63131 -9.37739 -4.69735 -44.6332 -12.3077 -5.98533 -0.303168 0.789893 -72.3702 -46.9118 105.495 -37.9287 -4.17201 -25.0027 20.81 48.1111 -27.5614 -5.71943 0.00665848 -7.67269 -12.9614 5.11617 -4.1314 -33.4308 0.370768 18.2103 
-23.4141 94.5585 37.341 102.454 12.028 89.2742 -176.324 -0.0368828 86.7646 -31.9195 19.4546 4.41919 67.3217 8.64185 14.19 40.9517 -1.01498 -3.07912 172.091 18.6618 83.8233 -52.115 -9.01829 -0.715345 56.3084 1.16767 20.8384 52.2785 -3.27411 3.94329 -0.433993 7.81169 -89.608 11.2527 -0.681256 0.847203 -0.418315 -0.643305 0.876362 -22.9537 -0.904383 0.603293 -2.941 -0.90438 0.603296 109.531 -50.1179 -70.7094 35.1984 5.60716 -6.02605 -4.62401 -43.4633 -11.6871 -6.12467 -0.335726 1.32381 -72.8166 -45.8277 104.895 -35.7035 -0.58472 -25.5379 23.6396 38.1567 -39.7121 -5.87307 0.0218559 -8.0708 -12.6303 5.5625 -4.47656 -33.1697 0.719173 18.8328 
-17.1853 94.8162 37.4602 101.596 16.7707 87.8106 -176.529 -3.18401 87.1687 -31.4623 22.5147 5.82576 67.5072 9.24986 12.2893 44.7406 -1.40949 -2.03699 175.176 16.7016 82.7434 -26.8128 -5.26716 -1.45302 55.8345 1.12719 23.7466 44.9311 -2.47217 -0.5717 -0.507688 7.67189 -89.468 11.5328 -0.761071 1.13808 -0.13841 -0.710259 1.17048 -22.6728 -1.06792 0.85676 -2.6602 -1.06793 0.856753 109.924 -50.5989 -70.1729 35.7081 7.47106 -3.68921 -5.07592 -42.6472 -11.2227 -6.14491 -0.336455 1.31874 -72.4147 -45.5376 105.566 -33.1862 1.67704 -25.7407 23.7987 32.1248 -46.7549 -5.82934 0.0535527 -9.10732 -12.7404 6.06498 -4.86097 -33.3509 0.728187 20.5693 
-10.7209 94.7632 37.648 101.012 22.102 85.8422 -177.028 -5.76318 87.8141 -32.0871 25.4149 7.66883 67.8419 9.39499 8.85674 48.0121 -1.62367 0.263771 176.967 14.9728 81.4627 -9.05027 -10.3009 -4.34844 50.9844 3.09271 26.6744 32.3388 -0.623495 1.01985 -0.431525 7.62874 -89.3479 11.6179 -0.552896 1.3569 -0.053649 -0.492627 1.37991 -22.5855 -0.935134 1.12805 -2.57289 -0.935092 1.12805 110.143 -50.8166 -69.8697 35.7102 7.95994 -2.44784 -6.60369 -43.8333 -12.6667 -4.12644 -0.211454 0.912289 -72.4289 -45.9703 105.499 -32.4166 1.55319 -25.6574 23.4503 32.4983 -46.3694 -7.36653 0.0870871 -8.44094 -12.9501 6.69397 -5.22592 -32.4263 1.2593 21.6699 
-3.59992 94.1047 38.0101 100.735 28.6566 84.5909 -178.416 -6.66722 89.1713 -36.915 28.9517 11.4534 68.5215 9.54997 6.2304 52.1379 -1.52686 4.99598 176.907 15.0485 80.1899 -10.7804 -15.4456 -4.6641 51.1027 3.00709 26.3533 40.886 -1.88007 -1.75962 -0.362687 7.61321 -89.3885 11.6475 -0.434738 1.26417 -0.0240212 -0.378643 1.28206 -22.5559 -0.794521 1.07512 -2.54322 -0.794522 1.07511 110.084 -50.8896 -69.9717 35.3609 7.39143 -3.13928 -5.65127 -43.9545 -11.9139 -5.39398 -0.305995 1.59343 -72.1638 -46.0874 105.906 -34.6493 -2.16569 -24.6618 24.7212 39.9423 -39.4983 -5.42114 0.00996253 -8.16055 -12.8233 7.81359 -6.48255 -31.4076 2.19933 23.4325 
3.34343 93.3451 38.2406 101.54 34.4726 84.6273 177.683 -4.32631 93.6536 -47.1559 26.0809 13.8843 65.1899 7.72871 3.54632 58.6172 -1.72859 5.89622 176.116 15.8474 81.3333 -20.7739 -16.5833 -3.20974 48.1433 4.23994 21.4182 53.5864 -3.96479 -0.618575 -0.1709 7.68314 -89.8069 11.515 -0.249617 0.409765 -0.155872 -0.231329 0.420345 -22.6915 -0.361245 0.315796 -2.67888 -0.361232 0.315797 109.167 -49.8481 -71.2382 34.1207 5.6761 -4.81917 -4.23428 -42.2194 -11.415 -5.56422 -0.301782 1.19369 -70.9014 -48.3246 107.625 -36.5279 -8.8929 -23.3667 17.3451 46.6878 -19.8242 -2.59957 -0.0733722 -5.64823 -12.4766 9.30996 -6.98607 -31.3072 2.9539 26.5901 
8.57878 93.3548 38.3709 101.208 41.0132 85.9139 173.849 6.11334 89.5422 -61.7654 14.249 11.3809 56.1182 3.85804 6.94501 56.7873 -2.0614 2.40844 174.946 16.158 83.2653 -28.5797 -11.199 -1.49771 55.0691 3.07038 17.1622 41.8401 -2.03478 -0.629128 0.00325501 7.84657 -90.2939 11.1796 -0.130169 -0.572838 -0.491493 -0.155235 -0.566561 -23.0256 0.0480183 -0.58547 -3.01294 0.0480099 -0.58547 108.769 -49.3652 -71.7934 30.5038 1.50205 -7.74965 -3.54188 -36.0502 -15.2405 -10.3824 -0.530257 0.864202 -72.2034 -47.5218 105.692 -41.3546 -15.9607 -19.998 12.8845 51.7753 -3.61276 -1.83155 -0.0986762 -4.35847 -9.2048 9.96685 -10.4086 -31.48 3.20684 29.4738 
